<!--?xml version="1.0" encoding="us-ascii" standalone="no"?--><svg xmlns="http://www.w3.org/2000/svg" xmlns:xlink="http://www.w3.org/1999/xlink" contentstyletype="text/css" height="439px" preserveAspectRatio="none" style="width:272px;height:439px;background:#FFFFFF;" version="1.1" viewBox="0 0 272 439" width="272px" zoomAndPan="magnify"><defs></defs><g><ellipse cx="117" cy="20" fill="#222222" rx="10" ry="10" style="stroke:#222222;stroke-width:1.0;"></ellipse><rect fill="#F1F1F1" height="33.9688" rx="12.5" ry="12.5" style="stroke:#181818;stroke-width:0.5;" width="128" x="53" y="98.4023"></rect><text fill="#000000" font-family="sans-serif" font-size="12" lengthAdjust="spacing" textLength="108" x="63" y="119.541">Index Geometries</text><rect fill="#F1F1F1" height="33.9688" rx="12.5" ry="12.5" style="stroke:#181818;stroke-width:0.5;" width="110" x="62" y="152.3711"></rect><text fill="#000000" font-family="sans-serif" font-size="12" lengthAdjust="spacing" textLength="90" x="72" y="173.5098">Geospatial Join</text><rect fill="#F1F1F1" height="33.9688" rx="12.5" ry="12.5" style="stroke:#181818;stroke-width:0.5;" width="210" x="12" y="254.7422"></rect><text fill="#000000" font-family="sans-serif" font-size="12" lengthAdjust="spacing" textLength="190" x="22" y="275.8809">Handle Points Outside Buildings</text><polygon fill="#F1F1F1" points="33.5,206.3398,200.5,206.3398,212.5,218.3398,200.5,230.3398,33.5,230.3398,21.5,218.3398,33.5,206.3398" style="stroke:#181818;stroke-width:0.5;"></polygon><text fill="#000000" font-family="sans-serif" font-size="11" lengthAdjust="spacing" textLength="21" x="121" y="240.5503">yes</text><text fill="#000000" font-family="sans-serif" font-size="11" lengthAdjust="spacing" textLength="167" x="33.5" y="222.1479">Are there unmatched points?</text><text fill="#000000" font-family="sans-serif" font-size="11" lengthAdjust="spacing" textLength="14" x="212.5" y="215.7456">no</text><polygon fill="#F1F1F1" points="117,308.7109,129,320.7109,117,332.7109,105,320.7109,117,308.7109" style="stroke:#181818;stroke-width:0.5;"></polygon><polygon fill="#F1F1F1" points="32,50,202,50,214,62,202,74,32,74,20,62,32,50" style="stroke:#181818;stroke-width:0.5;"></polygon><text fill="#000000" font-family="sans-serif" font-size="11" lengthAdjust="spacing" textLength="21" x="121" y="84.2104">yes</text><text fill="#000000" font-family="sans-serif" font-size="11" lengthAdjust="spacing" textLength="170" x="32" y="65.8081">Are there geometries to join?</text><text fill="#000000" font-family="sans-serif" font-size="11" lengthAdjust="spacing" textLength="14" x="214" y="59.4058">no</text><ellipse cx="250" cy="62" fill="none" rx="11" ry="11" style="stroke:#222222;stroke-width:1.0;"></ellipse><ellipse cx="250" cy="62" fill="#222222" rx="6" ry="6" style="stroke:#111111;stroke-width:1.0;"></ellipse><rect fill="#F1F1F1" height="33.9688" rx="12.5" ry="12.5" style="stroke:#181818;stroke-width:0.5;" width="97" x="68.5" y="352.7109"></rect><text fill="#000000" font-family="sans-serif" font-size="12" lengthAdjust="spacing" textLength="77" x="78.5" y="373.8496">Saving Table</text><ellipse cx="117" cy="417.6797" fill="none" rx="11" ry="11" style="stroke:#222222;stroke-width:1.0;"></ellipse><ellipse cx="117" cy="417.6797" fill="#222222" rx="6" ry="6" style="stroke:#111111;stroke-width:1.0;"></ellipse><line style="stroke:#181818;stroke-width:1.0;" x1="117" x2="117" y1="132.3711" y2="152.3711"></line><polygon fill="#181818" points="113,142.3711,117,152.3711,121,142.3711,117,146.3711" style="stroke:#181818;stroke-width:1.0;"></polygon><line style="stroke:#181818;stroke-width:1.0;" x1="117" x2="117" y1="230.3398" y2="254.7422"></line><polygon fill="#181818" points="113,244.7422,117,254.7422,121,244.7422,117,248.7422" style="stroke:#181818;stroke-width:1.0;"></polygon><line style="stroke:#181818;stroke-width:1.0;" x1="212.5" x2="232" y1="218.3398" y2="218.3398"></line><polygon fill="#181818" points="228,261.7266,232,271.7266,236,261.7266,232,265.7266" style="stroke:#181818;stroke-width:1.0;"></polygon><line style="stroke:#181818;stroke-width:1.0;" x1="232" x2="232" y1="218.3398" y2="320.7109"></line><line style="stroke:#181818;stroke-width:1.0;" x1="232" x2="129" y1="320.7109" y2="320.7109"></line><polygon fill="#181818" points="139,316.7109,129,320.7109,139,324.7109,135,320.7109" style="stroke:#181818;stroke-width:1.0;"></polygon><line style="stroke:#181818;stroke-width:1.0;" x1="117" x2="117" y1="288.7109" y2="308.7109"></line><polygon fill="#181818" points="113,298.7109,117,308.7109,121,298.7109,117,302.7109" style="stroke:#181818;stroke-width:1.0;"></polygon><line style="stroke:#181818;stroke-width:1.0;" x1="117" x2="117" y1="186.3398" y2="206.3398"></line><polygon fill="#181818" points="113,196.3398,117,206.3398,121,196.3398,117,200.3398" style="stroke:#181818;stroke-width:1.0;"></polygon><line style="stroke:#181818;stroke-width:1.0;" x1="117" x2="117" y1="74" y2="98.4023"></line><polygon fill="#181818" points="113,88.4023,117,98.4023,121,88.4023,117,92.4023" style="stroke:#181818;stroke-width:1.0;"></polygon><line style="stroke:#181818;stroke-width:1.0;" x1="214" x2="239" y1="62" y2="62"></line><polygon fill="#181818" points="229,58,239,62,229,66,233,62" style="stroke:#181818;stroke-width:1.0;"></polygon><line style="stroke:#181818;stroke-width:1.0;" x1="117" x2="117" y1="332.7109" y2="352.7109"></line><polygon fill="#181818" points="113,342.7109,117,352.7109,121,342.7109,117,346.7109" style="stroke:#181818;stroke-width:1.0;"></polygon><line style="stroke:#181818;stroke-width:1.0;" x1="117" x2="117" y1="30" y2="50"></line><polygon fill="#181818" points="113,40,117,50,121,40,117,44" style="stroke:#181818;stroke-width:1.0;"></polygon><line style="stroke:#181818;stroke-width:1.0;" x1="117" x2="117" y1="386.6797" y2="406.6797"></line><polygon fill="#181818" points="113,396.6797,117,406.6797,121,396.6797,117,400.6797" style="stroke:#181818;stroke-width:1.0;"></polygon><!--SRC=[NOrB3i8m34JtESKisolG1O8Ddmr8S850N6eKdAfs4ToUf4W8s5ZoUvwncX_CSOjgCH2iepmlb6va0vF24gw9PLuN9QYUfBK3PXi9zC3gSzWKc5VjlR6FsEPGOR_5ezoydJiAwBCt_Q_D7Mil8HBsayTkDEL0M8uS0yjb-aDH2PMaaY09tBflefPwzyQpWx_d48x-5AbnnRm0]--></g></svg>